<mxfile host="Electron" agent="Mozilla/5.0 (Macintosh; Intel Mac OS X 10_15_7) AppleWebKit/537.36 (KHTML, like Gecko) draw.io/28.1.2 Chrome/138.0.7204.243 Electron/37.4.0 Safari/537.36" version="28.1.2">
  <diagram name="Page-1" id="Y9HMARYmGWYA54-A5BWU">
    <mxGraphModel dx="1089" dy="964" grid="1" gridSize="10" guides="1" tooltips="1" connect="1" arrows="1" fold="1" page="1" pageScale="1" pageWidth="827" pageHeight="1169" math="0" shadow="0">
      <root>
        <mxCell id="0" />
        <mxCell id="1" parent="0" />
        <mxCell id="s0LiU8m4L1AXI0Rs9ViZ-1" value="" style="rounded=0;whiteSpace=wrap;html=1;direction=south;" vertex="1" parent="1">
          <mxGeometry x="170" y="110" width="830" height="650" as="geometry" />
        </mxCell>
        <mxCell id="s0LiU8m4L1AXI0Rs9ViZ-2" value="User" style="shape=umlActor;verticalLabelPosition=bottom;verticalAlign=top;html=1;outlineConnect=0;" vertex="1" parent="1">
          <mxGeometry x="60" y="300" width="30" height="60" as="geometry" />
        </mxCell>
        <mxCell id="s0LiU8m4L1AXI0Rs9ViZ-3" value="Compose email" style="ellipse;whiteSpace=wrap;html=1;" vertex="1" parent="1">
          <mxGeometry x="190" y="150" width="210" height="80" as="geometry" />
        </mxCell>
        <mxCell id="s0LiU8m4L1AXI0Rs9ViZ-4" value="Send email" style="ellipse;whiteSpace=wrap;html=1;" vertex="1" parent="1">
          <mxGeometry x="470" y="250" width="210" height="60" as="geometry" />
        </mxCell>
        <mxCell id="s0LiU8m4L1AXI0Rs9ViZ-5" value="Reply email" style="ellipse;whiteSpace=wrap;html=1;" vertex="1" parent="1">
          <mxGeometry x="470" y="370" width="210" height="60" as="geometry" />
        </mxCell>
        <mxCell id="s0LiU8m4L1AXI0Rs9ViZ-6" value="Forward email" style="ellipse;whiteSpace=wrap;html=1;" vertex="1" parent="1">
          <mxGeometry x="440" y="480" width="210" height="60" as="geometry" />
        </mxCell>
        <mxCell id="s0LiU8m4L1AXI0Rs9ViZ-7" value="Attach files" style="ellipse;whiteSpace=wrap;html=1;" vertex="1" parent="1">
          <mxGeometry x="260" y="620" width="210" height="60" as="geometry" />
        </mxCell>
        <mxCell id="s0LiU8m4L1AXI0Rs9ViZ-9" style="edgeStyle=orthogonalEdgeStyle;rounded=0;orthogonalLoop=1;jettySize=auto;html=1;exitX=0.5;exitY=1;exitDx=0;exitDy=0;" edge="1" parent="1" source="s0LiU8m4L1AXI0Rs9ViZ-3" target="s0LiU8m4L1AXI0Rs9ViZ-3">
          <mxGeometry relative="1" as="geometry" />
        </mxCell>
        <mxCell id="s0LiU8m4L1AXI0Rs9ViZ-10" value="&amp;lt;&amp;lt;extend&amp;gt;&amp;gt;" style="endArrow=open;endSize=12;dashed=1;html=1;rounded=0;exitX=0;exitY=0.5;exitDx=0;exitDy=0;" edge="1" parent="1" source="s0LiU8m4L1AXI0Rs9ViZ-7" target="s0LiU8m4L1AXI0Rs9ViZ-3">
          <mxGeometry x="0.029" width="160" relative="1" as="geometry">
            <mxPoint x="270" y="510" as="sourcePoint" />
            <mxPoint x="231" y="470" as="targetPoint" />
            <Array as="points" />
            <mxPoint as="offset" />
          </mxGeometry>
        </mxCell>
        <mxCell id="s0LiU8m4L1AXI0Rs9ViZ-11" value="Antivirus scan" style="ellipse;whiteSpace=wrap;html=1;" vertex="1" parent="1">
          <mxGeometry x="680" y="680" width="210" height="60" as="geometry" />
        </mxCell>
        <mxCell id="s0LiU8m4L1AXI0Rs9ViZ-12" value="&amp;lt;&amp;lt;include&amp;gt;&amp;gt;" style="endArrow=open;endSize=12;dashed=1;html=1;rounded=0;entryX=0.181;entryY=0.183;entryDx=0;entryDy=0;entryPerimeter=0;exitX=0.381;exitY=1;exitDx=0;exitDy=0;exitPerimeter=0;" edge="1" parent="1" source="s0LiU8m4L1AXI0Rs9ViZ-7" target="s0LiU8m4L1AXI0Rs9ViZ-11">
          <mxGeometry width="160" relative="1" as="geometry">
            <mxPoint x="460.8345323741007" y="726" as="sourcePoint" />
            <mxPoint x="414" y="540" as="targetPoint" />
          </mxGeometry>
        </mxCell>
        <mxCell id="s0LiU8m4L1AXI0Rs9ViZ-14" value="&amp;lt;&amp;lt;include&amp;gt;&amp;gt;" style="endArrow=open;endSize=12;dashed=1;html=1;rounded=0;exitX=-0.001;exitY=0.635;exitDx=0;exitDy=0;entryX=0.761;entryY=0.115;entryDx=0;entryDy=0;entryPerimeter=0;exitPerimeter=0;" edge="1" parent="1" source="s0LiU8m4L1AXI0Rs9ViZ-4" target="s0LiU8m4L1AXI0Rs9ViZ-3">
          <mxGeometry width="160" relative="1" as="geometry">
            <mxPoint x="180" y="470" as="sourcePoint" />
            <mxPoint x="340" y="470" as="targetPoint" />
          </mxGeometry>
        </mxCell>
        <mxCell id="s0LiU8m4L1AXI0Rs9ViZ-22" value="" style="endArrow=none;html=1;rounded=0;entryX=0;entryY=0.5;entryDx=0;entryDy=0;" edge="1" parent="1" source="s0LiU8m4L1AXI0Rs9ViZ-2" target="s0LiU8m4L1AXI0Rs9ViZ-6">
          <mxGeometry width="50" height="50" relative="1" as="geometry">
            <mxPoint x="150" y="460" as="sourcePoint" />
            <mxPoint x="200" y="410" as="targetPoint" />
          </mxGeometry>
        </mxCell>
        <mxCell id="s0LiU8m4L1AXI0Rs9ViZ-23" value="select recipient" style="ellipse;whiteSpace=wrap;html=1;" vertex="1" parent="1">
          <mxGeometry x="750" y="150" width="210" height="60" as="geometry" />
        </mxCell>
        <mxCell id="s0LiU8m4L1AXI0Rs9ViZ-25" value="reply individually&amp;nbsp;" style="ellipse;whiteSpace=wrap;html=1;" vertex="1" parent="1">
          <mxGeometry x="780" y="500" width="210" height="60" as="geometry" />
        </mxCell>
        <mxCell id="s0LiU8m4L1AXI0Rs9ViZ-26" value="reply to all&amp;nbsp;" style="ellipse;whiteSpace=wrap;html=1;" vertex="1" parent="1">
          <mxGeometry x="780" y="440" width="210" height="60" as="geometry" />
        </mxCell>
        <mxCell id="s0LiU8m4L1AXI0Rs9ViZ-27" value="" style="endArrow=classic;html=1;rounded=0;entryX=0.038;entryY=0.7;entryDx=0;entryDy=0;entryPerimeter=0;exitX=1;exitY=0.5;exitDx=0;exitDy=0;" edge="1" parent="1" source="s0LiU8m4L1AXI0Rs9ViZ-5" target="s0LiU8m4L1AXI0Rs9ViZ-26">
          <mxGeometry width="50" height="50" relative="1" as="geometry">
            <mxPoint x="640" y="335" as="sourcePoint" />
            <mxPoint x="690" y="285" as="targetPoint" />
          </mxGeometry>
        </mxCell>
        <mxCell id="s0LiU8m4L1AXI0Rs9ViZ-28" value="" style="endArrow=classic;html=1;rounded=0;exitX=0.957;exitY=0.733;exitDx=0;exitDy=0;exitPerimeter=0;entryX=0;entryY=0.5;entryDx=0;entryDy=0;" edge="1" parent="1" source="s0LiU8m4L1AXI0Rs9ViZ-5" target="s0LiU8m4L1AXI0Rs9ViZ-25">
          <mxGeometry width="50" height="50" relative="1" as="geometry">
            <mxPoint x="520" y="580" as="sourcePoint" />
            <mxPoint x="570" y="530" as="targetPoint" />
          </mxGeometry>
        </mxCell>
        <mxCell id="s0LiU8m4L1AXI0Rs9ViZ-29" value="&amp;lt;&amp;lt;include&amp;gt;&amp;gt;" style="endArrow=open;endSize=12;dashed=1;html=1;rounded=0;exitX=0;exitY=0.5;exitDx=0;exitDy=0;entryX=0.931;entryY=0.754;entryDx=0;entryDy=0;entryPerimeter=0;" edge="1" parent="1" source="s0LiU8m4L1AXI0Rs9ViZ-5" target="s0LiU8m4L1AXI0Rs9ViZ-3">
          <mxGeometry width="160" relative="1" as="geometry">
            <mxPoint x="420" y="333" as="sourcePoint" />
            <mxPoint x="390" y="290" as="targetPoint" />
          </mxGeometry>
        </mxCell>
        <mxCell id="s0LiU8m4L1AXI0Rs9ViZ-30" value="&amp;lt;&amp;lt;extend&amp;gt;&amp;gt;" style="endArrow=open;endSize=12;dashed=1;html=1;rounded=0;exitX=0.19;exitY=0.333;exitDx=0;exitDy=0;entryX=0.793;entryY=0.907;entryDx=0;entryDy=0;entryPerimeter=0;exitPerimeter=0;" edge="1" parent="1" source="s0LiU8m4L1AXI0Rs9ViZ-6" target="s0LiU8m4L1AXI0Rs9ViZ-3">
          <mxGeometry x="0.029" width="160" relative="1" as="geometry">
            <mxPoint x="310" y="510" as="sourcePoint" />
            <mxPoint x="351" y="410" as="targetPoint" />
            <Array as="points" />
            <mxPoint as="offset" />
          </mxGeometry>
        </mxCell>
        <mxCell id="s0LiU8m4L1AXI0Rs9ViZ-31" value="&amp;lt;&amp;lt;include&amp;gt;&amp;gt;" style="endArrow=open;endSize=12;dashed=1;html=1;rounded=0;exitX=1;exitY=0.5;exitDx=0;exitDy=0;entryX=0;entryY=1;entryDx=0;entryDy=0;" edge="1" parent="1" source="s0LiU8m4L1AXI0Rs9ViZ-4" target="s0LiU8m4L1AXI0Rs9ViZ-23">
          <mxGeometry width="160" relative="1" as="geometry">
            <mxPoint x="780" y="160" as="sourcePoint" />
            <mxPoint x="680" y="241" as="targetPoint" />
          </mxGeometry>
        </mxCell>
        <mxCell id="s0LiU8m4L1AXI0Rs9ViZ-33" value="&amp;lt;&amp;lt;include&amp;gt;&amp;gt;" style="endArrow=open;endSize=12;dashed=1;html=1;rounded=0;exitX=1;exitY=0;exitDx=0;exitDy=0;entryX=0.269;entryY=0.95;entryDx=0;entryDy=0;entryPerimeter=0;" edge="1" parent="1" source="s0LiU8m4L1AXI0Rs9ViZ-5" target="s0LiU8m4L1AXI0Rs9ViZ-23">
          <mxGeometry width="160" relative="1" as="geometry">
            <mxPoint x="690" y="280" as="sourcePoint" />
            <mxPoint x="801" y="281" as="targetPoint" />
          </mxGeometry>
        </mxCell>
        <mxCell id="s0LiU8m4L1AXI0Rs9ViZ-34" value="" style="endArrow=none;html=1;rounded=0;entryX=0;entryY=1;entryDx=0;entryDy=0;" edge="1" parent="1" source="s0LiU8m4L1AXI0Rs9ViZ-2" target="s0LiU8m4L1AXI0Rs9ViZ-5">
          <mxGeometry width="50" height="50" relative="1" as="geometry">
            <mxPoint x="430" y="500" as="sourcePoint" />
            <mxPoint x="480" y="450" as="targetPoint" />
          </mxGeometry>
        </mxCell>
        <mxCell id="s0LiU8m4L1AXI0Rs9ViZ-35" value="" style="endArrow=none;html=1;rounded=0;entryX=0.021;entryY=0.283;entryDx=0;entryDy=0;entryPerimeter=0;" edge="1" parent="1" target="s0LiU8m4L1AXI0Rs9ViZ-4">
          <mxGeometry width="50" height="50" relative="1" as="geometry">
            <mxPoint x="90" y="330" as="sourcePoint" />
            <mxPoint x="480" y="450" as="targetPoint" />
          </mxGeometry>
        </mxCell>
        <mxCell id="s0LiU8m4L1AXI0Rs9ViZ-36" value="&amp;lt;&amp;lt;include&amp;gt;&amp;gt;" style="endArrow=open;endSize=12;dashed=1;html=1;rounded=0;exitX=1;exitY=0.5;exitDx=0;exitDy=0;entryX=0.169;entryY=0.169;entryDx=0;entryDy=0;entryPerimeter=0;" edge="1" parent="1" source="s0LiU8m4L1AXI0Rs9ViZ-6" target="s0LiU8m4L1AXI0Rs9ViZ-1">
          <mxGeometry width="160" relative="1" as="geometry">
            <mxPoint x="700" y="662" as="sourcePoint" />
            <mxPoint x="856" y="490" as="targetPoint" />
          </mxGeometry>
        </mxCell>
      </root>
    </mxGraphModel>
  </diagram>
</mxfile>
